<svg xmlns="http://www.w3.org/2000/svg" viewBox="0 0 260 120" role="img" aria-label="SMTP outbound email">
  <rect x="2" y="2" width="256" height="116" rx="9" fill="#050505"/>
  <path d="M2 31h256" stroke="#fff" stroke-width="3.5"/>
  <path d="M180 16.5h16m8 0h16m8 0h16" stroke="#fff" stroke-width="5"/>
  <path fill="#fff" stroke="#fff" stroke-width="4.5" d="M37.7 76Q30.5 73.2 28 70.2Q25.5 67.2 25.5 62.2Q25.5 55.6 29.6 51.9Q33.8 48.2 41.1 48.2Q44.4 48.2 47.7 49Q51 49.7 54.3 51.2V60.4Q51.2 58.3 48.1 57.2Q44.9 56 41.8 56Q38.4 56 36.6 57.4Q34.7 58.8 34.7 61.4Q34.7 63.4 36.1 64.7Q37.4 66 41.6 67.5L45.7 69.1Q51.5 71.2 54.2 74.7Q57 78.2 57 83.5Q57 90.8 52.7 94.4Q48.4 97.9 39.7 97.9Q36.2 97.9 32.6 97.1Q29 96.2 25.7 94.6V84.8Q29.4 87.5 33 88.8Q36.5 90.1 40 90.1Q43.5 90.1 45.4 88.5Q47.4 86.9 47.4 84.1Q47.4 81.9 46.1 80.3Q44.8 78.7 42.4 77.7Z M63.7 49.1H75L80.7 70.1L86.4 49.1H97.7V97H89.6V58.6L84.5 79.6H77L71.8 58.6V97H63.7Z M125 97H115.6V57.3H103.4V49.1H137.2V57.3H125Z M154.8 57V71.1H158.6Q163.3 71.1 165.2 69.5Q167.1 67.9 167.1 64.1Q167.1 60.2 165.2 58.6Q163.3 57 158.6 57ZM145.3 49.1H158.3Q168.2 49.1 172.6 52.6Q176.9 56.1 176.9 64.1Q176.9 72 172.6 75.5Q168.2 79.1 158.3 79.1H154.8V97H145.3Z"/>
  <path fill="#fff" d="M209.9 98.1 L232.9 60.9 L190.1 69.9 L197.8 80.9 L223.5 67.5 L202.2 87.1Z"/>
</svg>
